Simulation
nRows=48
nColumns=15
endheader
time  TH_x TH_y TH_z SC_y  SC_z  SC_x  AC_y  AC_z  AC_x  GH_y  GH_z  GH_yy  EL_x  PS_y
0.0  0.000000  0.000000  0.000000  -28.731617125991207  -1.8275121096333569  11.69417939946192  53.593443920188626  -7.6925860819272165  -9.192672913844557  17.919065925484702  -1.440372049329213  6.320524938601294  26.12428186789714  0.000000
0.015  0.000000  0.000000  0.000000  -28.731552436436612  -1.335676191501654  11.912330167453934  53.57110716580377  -7.4692098283811825  -9.601653264658589  18.074068704804166  -0.971153966090093  6.42805427912136  26.073057421572745  0.000000
0.03  0.000000  0.000000  0.000000  -28.452089967057372  -1.0035950961957787  12.117242361737361  53.18608635212062  -7.271198087664408  -9.996570658958673  18.10779905820222  -0.5156612032358567  6.343255993534575  25.898767805885885  0.000000
0.045  0.000000  0.000000  0.000000  -28.206136954953145  -0.8106178694918911  12.28679527156035  52.83277374491465  -7.077915743517019  -10.288476354340355  18.153655556002136  0.015719635875535654  6.181003607182924  25.70100581601269  0.000000
0.06  0.000000  0.000000  0.000000  -28.019808930136815  -0.7431343359042307  12.439183515553488  52.50340082808182  -6.881467443206725  -10.507194895261629  18.21306034093813  0.609328068170786  5.944051846262778  25.567450063742783  0.000000
0.075  0.000000  0.000000  0.000000  -27.883634570736177  -0.7616315810506852  12.583894932812877  52.144198076366216  -6.705700459697405  -10.642577289028527  18.27066869664882  1.2562952158183318  5.627163859942261  25.475695158107335  0.000000
0.09  0.000000  0.000000  0.000000  -27.768221267077582  -0.8272779653814819  12.729820668317403  51.68626682957259  -6.55792309756285  -10.68999057032849  18.29737678465937  1.9253164316921572  5.210794963157078  25.407125547159907  0.000000
0.105  0.000000  0.000000  0.000000  -27.641347233293725  -0.926469702742841  12.862507554479853  51.117692884331355  -6.399805099719895  -10.634228121364522  18.275629279932538  2.5689298353042425  4.680270304513843  25.317012515447587  0.000000
0.12  0.000000  0.000000  0.000000  -27.507758359308873  -1.0726492567609756  12.966314176295258  50.45527450682388  -6.155288103174348  -10.474556158855902  18.25675141239047  3.1406856182064007  4.0826985848699175  25.17471159792366  0.000000
0.135  0.000000  0.000000  0.000000  -27.41741579208186  -1.289107594990905  13.110946676509958  49.7300154559581  -5.812365756140402  -10.27996088074869  18.335889373435634  3.625531021694021  3.5129914794489125  24.986453367927684  0.000000
0.15  0.000000  0.000000  0.000000  -27.371565900998792  -1.6147436311450352  13.298951606935052  49.20094018671922  -5.464501549398231  -10.162274982005233  18.47644365605411  4.172812373731172  2.9234048367826815  24.81742689659992  0.000000
0.16499999999999998  0.000000  0.000000  0.000000  -27.349651616627398  -1.9521620582756254  13.44842742954436  49.30608138262811  -5.282172609902593  -10.164735889999626  18.58555612414689  4.974602838255264  2.2192565768339194  24.76461676616803  0.000000
0.18  0.000000  0.000000  0.000000  -27.382293068108513  -2.0950765563614118  13.589226971618515  49.77292658362385  -5.263827476914939  -10.193987399729927  18.743011314607255  5.865615537938835  1.5411602016823307  24.827901458679314  0.000000
0.195  0.000000  0.000000  0.000000  -27.4419126720448  -2.0624294431238965  13.778266661128232  50.00667520597371  -5.281671541494498  -10.182686796076776  18.96365369127688  6.637138782291238  0.9476470704946999  24.884446508101583  0.000000
0.21  0.000000  0.000000  0.000000  -27.484908644835695  -1.9963837496994348  13.998795785015844  50.13150298030048  -5.349816699369953  -10.189440129273075  19.12916703791182  7.3891993864668635  0.2926870362709724  24.880490875238994  0.000000
0.22499999999999998  0.000000  0.000000  0.000000  -27.526861076788343  -1.9387676735113388  14.24082833276484  50.2529208163024  -5.443126502647559  -10.247324489556414  19.27248375825091  8.157257872725319  -0.3857974923338161  24.84620908254328  0.000000
0.24  0.000000  0.000000  0.000000  -27.56069964273599  -1.903073504897488  14.516216271587963  50.3269939595047  -5.540118058546564  -10.365525144135068  19.417808376322142  8.919727423811302  -1.0589261254347637  24.78836839832255  0.000000
0.255  0.000000  0.000000  0.000000  -27.572271936006608  -1.8938612616427477  14.832438866281809  50.376480595037705  -5.661204331167544  -10.549126441295773  19.54682735509862  9.682826324007777  -1.7492282872184102  24.70936048556445  0.000000
0.27  0.000000  0.000000  0.000000  -27.569038608317985  -1.8933791561590538  15.213305150879018  50.36084939230253  -5.817665091697195  -10.7838199549787  19.666272050406224  10.419414989960206  -2.4394382276797972  24.61948311500712  0.000000
0.285  0.000000  0.000000  0.000000  -27.574627514620747  -1.8815132901176683  15.617806501014872  50.30090547387863  -5.982473064629701  -11.016615027041098  19.782568031470433  11.122910238643357  -3.117795659983718  24.529381834659393  0.000000
0.3  0.000000  0.000000  0.000000  -27.601635826117555  -1.8623253498668566  15.972478143587342  50.243138987282855  -6.099283395439314  -11.211796493503247  19.9096055684629  11.823546422910281  -3.7663781145742097  24.448604453937747  0.000000
0.315  0.000000  0.000000  0.000000  -27.63964334821045  -1.855228027968656  16.282106650179912  50.24034668927291  -6.168571009063036  -11.3983300231209  20.023829689599157  12.557403564709162  -4.404241809880184  24.367094871974714  0.000000
0.32999999999999996  0.000000  0.000000  0.000000  -27.67108659060929  -1.8542441271871803  16.544239414944002  50.2628450766062  -6.170648800217285  -11.567968529718508  20.105632690883017  13.315818364618925  -5.033379602038688  24.278396770420116  0.000000
0.345  0.000000  0.000000  0.000000  -27.69139700051602  -1.8286529824339488  16.746536874531674  50.30287456387366  -6.105737269496564  -11.686005684667652  20.157609467620542  14.090022899703571  -5.654835388298312  24.17459600019332  0.000000
0.36  0.000000  0.000000  0.000000  -27.706698113901552  -1.762387417860474  16.91589715835719  50.35892469448269  -6.001285355562062  -11.755423632277932  20.196031512779236  14.87511721571029  -6.263514566330076  24.05823374175963  0.000000
0.375  0.000000  0.000000  0.000000  -27.716666847098566  -1.6646503239549055  17.074565852851503  50.41742571439486  -5.868721152148178  -11.79462080428272  20.22554361555284  15.665829086021347  -6.8576445533875745  23.939140364040867  0.000000
0.39  0.000000  0.000000  0.000000  -27.723883566211942  -1.5507147867751299  17.23176077038201  50.48294053201915  -5.713001703842909  -11.817352675406509  20.247626660152825  16.463348497150548  -7.437779913244609  23.815905152947355  0.000000
0.40499999999999997  0.000000  0.000000  0.000000  -27.731070483245176  -1.4319280821784826  17.390644676304618  50.55589117597343  -5.534963621953624  -11.831452426750232  20.263304999969918  17.266621240919868  -8.001960779263474  23.69066129319968  0.000000
0.42  0.000000  0.000000  0.000000  -27.740133298889837  -1.3138733176273774  17.550954964118205  50.63825519027445  -5.335860472077562  -11.839277543020422  20.27296237433428  18.073616879962483  -8.549796346202672  23.563681325050098  0.000000
0.435  0.000000  0.000000  0.000000  -27.75170452098586  -1.1980487067371548  17.711011721139894  50.730976704840714  -5.117718948910614  -11.840812686703702  20.27706189013458  18.882245407349174  -9.080807300807628  23.435283984672303  0.000000
0.44999999999999996  0.000000  0.000000  0.000000  -27.766614442663133  -1.0844770535945312  17.86967698182116  50.83325853298371  -4.881666053798729  -11.834832554349697  20.275997945837364  19.688652781643775  -9.594703696586107  23.305305462664954  0.000000
0.46499999999999997  0.000000  0.000000  0.000000  -27.785815752588768  -0.9733640440867712  18.026351659079015  50.94432706611032  -4.62971428223303  -11.821550006154865  20.270246202873363  20.490683369871906  -10.091996557532164  23.173916722706835  0.000000
0.48  0.000000  0.000000  0.000000  -27.81055528642157  -0.864947111073482  18.18266262454534  51.0632141647746  -4.364312911926515  -11.802207630546738  20.2614847597161  21.28564862946118  -10.572465896205998  23.04094500546222  0.000000
0.495  0.000000  0.000000  0.000000  -27.8404072841725  -0.7588031370753301  18.34128733901796  51.18854551558509  -4.08974662373944  -11.778501249532384  20.251273753599847  22.071709613520223  -11.036432951178362  22.905399597370202  0.000000
0.51  0.000000  0.000000  0.000000  -27.87304128460712  -0.6527265498947333  18.505852190257553  51.317550485269265  -3.8097061915865207  -11.751423224328095  20.240955343664634  22.844473140374948  -11.484363224313414  22.766179195987128  0.000000
0.525  0.000000  0.000000  0.000000  -27.908067875015075  -0.545762953285809  18.677247741576824  51.449066063552536  -3.5252054727043234  -11.721204182562659  20.23184384857116  23.601142988215507  -11.916875945047764  22.622854512457124  0.000000
0.54  0.000000  0.000000  0.000000  -27.949123959675344  -0.4411843939069613  18.853785414333117  51.5851910071096  -3.2335489778756736  -11.688737912908369  20.22517494953066  24.341937115232067  -12.335210576650821  22.475825590667302  0.000000
0.5549999999999999  0.000000  0.000000  0.000000  -27.99817539430733  -0.3407717252532134  19.03412455385533  51.72684192364793  -2.9340053104328674  -11.6549087951668  20.22115917324946  25.06803643368031  -12.741432273758528  22.325235189417562  0.000000
0.57  0.000000  0.000000  0.000000  -28.05505345915203  -0.24291091768745782  19.218053915934597  51.87240607335854  -2.627170612107376  -11.619087344181025  20.220536259119026  25.778520281496707  -13.136608672859102  22.170337125996866  0.000000
0.585  0.000000  0.000000  0.000000  -28.11952773949458  -0.1463480786420843  19.405323395516792  52.02072384002291  -2.313656788687691  -11.581142429829912  20.224077582088654  26.473166967997216  -13.52155259467075  22.010798456286043  0.000000
0.6  0.000000  0.000000  0.000000  -28.191784996336796  -0.050625072302615266  19.596072725522202  52.17089996611893  -1.9937268710299827  -11.540973505402  20.232303807839305  27.151645786453795  -13.897402228237963  21.846514627388164  0.000000
0.615  0.000000  0.000000  0.000000  -28.271701361571633  0.04488578044629509  19.790504182981074  52.322027542695146  -1.6681660722422074  -11.498380523779108  20.245507506802248  27.81392955424882  -14.265468436173785  21.67734090335781  0.000000
0.63  0.000000  0.000000  0.000000  -28.35913724000043  0.14096789939342294  19.988772260017686  52.47339241587812  -1.33743803351296  -11.452975861634627  20.264139307908177  28.45960514269374  -14.626829464506818  21.503181159378087  0.000000
0.645  0.000000  0.000000  0.000000  -28.45460652745623  0.2374813522557664  20.190735543481782  52.62463408018857  -1.001749504446492  -11.404431189073982  20.288631010123066  29.08897529626418  -14.982404706694807  21.324295497619033  0.000000
0.6599999999999999  0.000000  0.000000  0.000000  -28.558655021199073  0.33415610388837014  20.396280538053574  52.77586411120063  -0.6614458056999987  -11.35259620993817  20.319279894886197  29.702499683966185  -15.333354854554292  21.14093814338529  0.000000
0.6749999999999999  0.000000  0.000000  0.000000  -28.67090868553585  0.43158211753253917  20.6054934089582  52.92622991523884  -0.31733873068997454  -11.29706549187268  20.356398190672987  30.300163066501113  -15.68048494333643  20.95328574950307  0.000000
0.69  0.000000  0.000000  0.000000  -28.79103989799334  0.5303695657402218  20.818537972460433  53.07492816675753  0.029841039972785966  -11.23740284246566  20.40033406384691  30.881734477982167  -16.024412590218073  20.761527720521077  0.000000
0.705  0.000000  0.000000  0.000000  -28.919409762606517  0.6305371435180361  21.035314203401743  53.221885673919246  0.37921353785650186  -11.173309599986995  20.451317084314077  31.44773805912208  -16.365994538155903  20.566155254898504  0.000000
